<?xml version="1.0" encoding="UTF-8"?>
<!-- Legacy reference. Store asset is generated by build-feature-graphic.py (logo + theme). -->
<svg xmlns="http://www.w3.org/2000/svg" width="1024" height="500" viewBox="0 0 1024 500">
  <defs>
    <linearGradient id="bg" x1="0%" y1="0%" x2="100%" y2="50%">
      <stop offset="0%" stop-color="#FFFFFF"/>
      <stop offset="45%" stop-color="#F0F7FD"/>
      <stop offset="100%" stop-color="#D6EEFF"/>
    </linearGradient>
    <linearGradient id="heroDrop" x1="0%" y1="0%" x2="0%" y2="100%">
      <stop offset="0%" stop-color="#9CD5FF"/>
      <stop offset="100%" stop-color="#355872"/>
    </linearGradient>
    <filter id="blurBig" x="-50%" y="-50%" width="200%" height="200%">
      <feGaussianBlur stdDeviation="24"/>
    </filter>
  </defs>
  <rect width="1024" height="500" fill="url(#bg)"/>
  <circle cx="880" cy="120" r="140" fill="#9CD5FF" opacity="0.22" filter="url(#blurBig)"/>
  <circle cx="920" cy="380" r="100" fill="#7AAACE" opacity="0.18" filter="url(#blurBig)"/>
  <circle cx="120" cy="400" r="90" fill="#B8D9F5" opacity="0.35"/>

  <g opacity="0.12" transform="translate(780 250) scale(1.15)">
    <path fill="#355872" d="M 0 -120 C -72 -40 -110 40 -110 100 C -110 168 -58 210 0 210 C 58 210 110 168 110 100 C 110 40 72 -40 0 -120 Z"/>
  </g>

  <text x="64" y="168" font-family="Arial, Helvetica, sans-serif" font-size="78" font-weight="700" fill="#355872">
    Hydro<tspan fill="#7AAACE">:</tspan><tspan fill="#355872"> </tspan><tspan fill="#7AAACE" font-weight="700">Gulp</tspan>
  </text>
  <text x="64" y="228" font-family="Arial, Helvetica, sans-serif" font-size="30" font-weight="400" fill="#355872" opacity="0.88">
    Track hydration. Hit your daily goal.
  </text>
  <text x="64" y="278" font-family="Arial, Helvetica, sans-serif" font-size="22" font-weight="400" fill="#5A7A96">
    Log drinks, smart reminders, and insights - in one calm place.
  </text>

  <g transform="translate(64 330)">
    <path fill="url(#heroDrop)" d="M 0 -44 C -28 -12 -42 18 -42 38 C -42 58 -22 72 0 72 C 22 72 42 58 42 38 C 42 18 28 -12 0 -44 Z"/>
    <ellipse cx="-14" cy="28" rx="14" ry="22" fill="#FFFFFF" opacity="0.35"/>
  </g>
  <text x="130" y="348" font-family="Arial, Helvetica, sans-serif" font-size="20" font-weight="600" fill="#355872">
    Water tracking that fits your day
  </text>
</svg>
